<svg id="svg" version="1.1" xmlns="http://www.w3.org/2000/svg" xmlns:xlink="http://www.w3.org/1999/xlink" width="400" height="400" viewBox="0, 0, 400,400"><g id="svgg"><path id="path0" d="M262.600 198.474 C 257.415 200.386,257.047 201.520,256.792 216.400 C 256.487 234.204,257.907 232.170,237.701 243.752 C 231.706 247.188,226.725 250.000,226.632 250.000 C 226.269 250.000,208.163 260.531,206.044 261.975 C 203.663 263.597,199.676 267.562,198.824 269.155 C 198.232 270.261,198.186 378.919,198.776 383.627 C 199.422 388.793,201.318 390.607,203.905 388.535 C 206.187 386.706,208.430 383.197,218.692 365.400 C 256.561 299.722,253.341 304.979,256.719 303.320 L 259.000 302.200 309.800 301.979 C 363.163 301.746,363.393 301.738,366.881 299.958 C 369.412 298.667,370.156 296.686,369.419 293.200 C 368.912 290.803,364.744 283.278,344.824 248.800 C 334.211 230.430,324.149 212.994,322.464 210.053 C 317.828 201.963,317.736 201.901,306.958 199.562 L 301.000 198.269 282.400 198.150 C 269.518 198.068,263.431 198.167,262.600 198.474 M228.311 260.664 C 229.033 261.413,230.075 262.965,230.628 264.113 C 231.181 265.261,232.166 267.010,232.816 268.000 C 233.466 268.990,234.265 270.373,234.593 271.073 C 234.920 271.773,235.374 272.460,235.601 272.601 C 236.107 272.913,238.800 278.395,238.800 279.111 C 238.800 280.824,237.066 280.138,227.289 274.557 C 223.170 272.207,219.030 269.849,218.089 269.318 C 217.148 268.787,216.170 268.022,215.917 267.616 C 215.656 267.197,215.200 266.979,214.859 267.109 C 214.427 267.275,214.332 267.154,214.518 266.669 C 214.659 266.301,214.594 266.000,214.373 266.000 C 214.105 266.000,214.105 265.752,214.372 265.253 C 214.592 264.842,214.643 264.363,214.486 264.188 C 214.329 264.014,214.425 264.001,214.700 264.159 C 214.975 264.318,215.200 264.246,215.200 264.000 C 215.200 263.754,215.361 263.652,215.558 263.774 C 215.755 263.896,216.024 263.715,216.155 263.372 C 216.287 263.030,216.576 262.861,216.797 262.998 C 217.019 263.135,217.200 263.027,217.200 262.757 C 217.200 262.487,217.305 262.372,217.433 262.500 C 217.562 262.628,218.018 262.382,218.448 261.952 C 218.878 261.522,219.403 261.278,219.615 261.409 C 219.827 261.540,220.000 261.446,220.000 261.200 C 220.000 260.954,220.161 260.852,220.358 260.974 C 220.555 261.096,220.824 260.915,220.955 260.572 C 221.087 260.230,221.376 260.061,221.597 260.198 C 221.819 260.335,222.000 260.246,222.000 260.000 C 222.000 259.754,222.180 259.664,222.400 259.800 C 222.620 259.936,222.800 259.846,222.800 259.600 C 222.800 259.354,222.980 259.264,223.200 259.400 C 223.420 259.536,223.600 259.446,223.600 259.200 C 223.600 258.954,223.744 258.842,223.919 258.950 C 224.095 259.058,224.490 258.992,224.798 258.802 C 225.527 258.351,226.666 258.954,228.311 260.664 " stroke="none" fill="#30d3a7" fill-rule="evenodd"></path><path id="path1" d="M201.920 66.584 C 202.047 125.605,202.084 124.417,200.073 126.285 C 197.568 128.610,198.009 128.813,168.507 111.759 L 146.771 99.194 145.486 99.862 C 140.740 102.326,144.615 102.157,87.400 102.389 C 31.453 102.616,33.888 102.512,33.342 104.688 C 32.691 107.281,31.040 104.220,61.999 157.800 C 73.059 176.940,83.013 194.310,84.121 196.400 C 85.228 198.490,86.182 200.263,86.240 200.339 C 86.431 200.592,97.716 195.932,103.062 193.391 C 105.956 192.016,113.813 187.712,120.523 183.828 C 139.274 172.973,138.800 172.964,138.800 184.206 C 138.800 197.219,139.774 195.951,140.034 182.600 C 140.379 164.835,139.496 166.138,158.600 155.211 C 184.095 140.628,190.242 137.045,192.600 135.393 C 199.367 130.651,200.311 130.692,209.600 136.140 C 223.332 144.192,226.047 145.882,229.600 148.589 C 231.690 150.182,236.100 153.068,239.400 155.004 C 251.798 162.277,253.920 163.026,256.345 160.985 L 257.654 159.884 257.527 132.442 C 257.385 101.753,257.598 104.057,254.482 99.513 C 252.742 96.978,249.896 92.103,230.008 57.600 C 205.884 15.748,203.146 11.200,202.071 11.200 C 201.922 11.200,201.854 36.123,201.920 66.584 " stroke="none" fill="#d84e93" fill-rule="evenodd"></path><path id="path2" d="M208.050 7.694 C 208.316 8.192,209.381 10.040,210.415 11.800 C 211.450 13.560,222.059 31.920,233.990 52.600 C 260.330 98.255,258.240 94.853,260.800 96.241 C 263.176 97.529,358.400 97.630,358.400 96.344 C 358.400 93.866,362.797 96.533,280.000 48.802 C 274.390 45.567,259.990 37.250,248.000 30.318 C 219.360 13.761,218.993 13.549,216.200 12.016 C 214.880 11.291,213.516 10.451,213.169 10.149 C 212.821 9.847,212.408 9.600,212.249 9.600 C 212.091 9.600,210.972 8.967,209.763 8.194 C 207.823 6.952,207.622 6.894,208.050 7.694 M140.616 94.427 C 140.727 94.606,121.689 94.770,98.309 94.791 C 64.131 94.821,54.898 94.940,51.200 95.398 C 46.834 95.938,40.793 97.082,40.433 97.436 C 40.053 97.810,137.062 97.578,138.418 97.202 C 139.198 96.985,140.426 96.199,141.148 95.454 L 142.460 94.100 141.437 94.100 C 140.875 94.100,140.505 94.247,140.616 94.427 M30.405 111.811 C 30.423 113.158,34.929 125.796,36.034 127.600 C 36.236 127.930,36.593 128.646,36.826 129.192 C 37.059 129.737,37.377 130.277,37.533 130.392 C 37.689 130.506,38.036 131.050,38.305 131.600 C 38.574 132.150,38.969 132.870,39.182 133.200 C 39.395 133.530,42.669 139.200,46.458 145.800 C 53.339 157.786,54.619 159.991,56.286 162.739 C 56.773 163.543,57.454 164.740,57.799 165.400 C 58.143 166.060,58.780 167.140,59.214 167.800 C 59.647 168.460,60.279 169.540,60.617 170.200 C 60.956 170.860,61.663 172.120,62.189 173.000 C 62.715 173.880,63.427 175.140,63.772 175.800 C 64.116 176.460,64.757 177.540,65.195 178.200 C 65.633 178.860,66.113 179.670,66.262 180.000 C 66.490 180.505,70.833 188.083,71.993 190.000 C 76.086 196.763,76.638 198.962,75.128 202.490 C 74.266 204.503,66.301 218.461,46.190 253.200 C 33.486 275.145,34.399 273.283,30.103 285.987 C 25.510 299.565,26.697 301.606,40.930 304.611 C 53.316 307.226,52.711 307.198,96.080 307.199 C 122.230 307.200,136.224 307.342,137.526 307.622 C 140.205 308.196,140.827 308.952,145.897 317.800 C 156.425 336.170,174.866 368.081,179.102 375.258 C 181.045 378.551,183.468 381.901,186.045 384.858 C 188.222 387.356,191.257 391.045,192.789 393.056 C 194.321 395.067,196.345 397.316,197.287 398.053 C 198.229 398.791,199.060 399.530,199.133 399.697 C 199.373 400.242,200.579 399.998,201.600 399.200 C 202.150 398.770,202.795 398.414,203.034 398.409 C 203.785 398.393,208.106 395.187,210.475 392.886 C 214.316 389.157,213.617 389.579,269.000 357.605 C 303.820 337.503,326.002 324.695,337.600 317.996 C 353.344 308.903,356.284 307.389,363.097 304.863 C 372.773 301.276,373.830 299.400,371.921 289.200 C 371.062 284.610,371.059 284.412,370.830 200.600 C 370.697 151.870,370.448 116.264,370.238 115.800 C 369.078 113.237,371.209 109.941,347.488 151.000 C 315.984 205.534,317.733 202.219,319.217 204.566 C 319.765 205.432,321.820 208.987,349.159 256.345 C 371.137 294.419,371.502 295.182,369.162 298.157 C 366.289 301.810,367.578 301.727,309.800 301.979 L 259.000 302.200 256.719 303.320 C 253.341 304.979,256.561 299.722,218.692 365.400 C 208.430 383.197,206.187 386.706,203.905 388.535 C 201.318 390.607,199.422 388.793,198.776 383.627 C 198.186 378.919,198.232 270.261,198.824 269.155 C 199.676 267.562,203.663 263.597,206.044 261.975 C 208.163 260.531,226.269 250.000,226.632 250.000 C 226.725 250.000,231.706 247.188,237.701 243.752 C 257.870 232.191,256.443 234.222,256.908 216.400 C 258.142 169.016,258.306 170.152,249.592 165.581 C 243.205 162.231,234.140 156.957,230.800 154.647 C 223.451 149.565,219.958 147.353,213.145 143.464 C 204.524 138.544,204.133 138.357,204.719 139.439 C 206.035 141.869,209.401 144.801,213.761 147.318 C 220.201 151.035,222.114 153.335,220.441 155.351 C 220.202 155.638,220.108 155.975,220.231 156.098 C 220.450 156.317,219.641 157.973,217.934 160.800 C 217.119 162.150,216.391 163.439,214.153 167.500 C 213.577 168.545,211.963 171.412,210.568 173.871 C 209.172 176.330,207.908 178.850,207.760 179.471 C 207.611 180.092,207.372 180.780,207.228 181.000 C 206.436 182.212,205.146 187.383,203.587 195.600 C 202.771 199.897,201.773 203.665,200.727 206.400 C 196.419 217.664,196.000 220.522,196.000 238.608 C 196.000 257.393,196.366 256.930,186.200 251.001 L 181.400 248.201 175.600 247.958 C 168.521 247.660,168.031 247.490,158.221 241.908 C 145.993 234.952,145.356 233.779,148.378 223.800 C 149.491 220.128,149.590 219.315,149.595 213.881 L 149.600 207.962 147.553 203.681 C 146.427 201.326,145.276 198.680,144.994 197.800 C 143.809 194.095,143.094 200.484,142.902 216.479 C 142.701 233.280,143.271 235.974,148.189 241.459 C 148.415 241.711,149.230 242.740,150.000 243.745 C 150.770 244.750,151.634 245.491,151.921 245.391 C 152.207 245.291,152.343 245.368,152.223 245.563 C 151.970 245.972,153.144 246.569,153.940 246.436 C 154.276 246.380,154.365 246.533,154.175 246.841 C 153.962 247.185,154.070 247.259,154.530 247.082 C 154.937 246.926,155.154 247.015,155.095 247.314 C 155.043 247.581,155.225 247.755,155.500 247.700 C 155.775 247.645,156.000 247.799,156.000 248.043 C 156.000 248.286,156.279 248.378,156.621 248.247 C 156.962 248.116,157.143 248.168,157.023 248.363 C 156.808 248.711,157.916 249.387,158.500 249.264 C 158.665 249.229,158.800 249.374,158.800 249.587 C 158.800 249.801,159.100 249.860,159.466 249.719 C 159.913 249.548,160.036 249.617,159.842 249.932 C 159.681 250.193,159.784 250.427,160.076 250.461 C 161.141 250.585,161.430 250.652,162.800 251.093 C 163.570 251.341,165.010 251.662,166.000 251.806 C 170.319 252.433,173.184 253.697,183.000 259.301 C 189.489 263.006,190.241 263.606,191.269 265.891 C 192.673 269.013,192.280 269.375,179.600 276.643 C 175.090 279.229,168.610 282.955,165.200 284.925 C 161.790 286.895,156.840 289.580,154.200 290.892 C 151.560 292.204,147.923 294.267,146.119 295.475 C 144.314 296.684,141.704 298.061,140.319 298.536 L 137.800 299.400 88.800 299.522 C 36.499 299.652,35.549 299.630,33.514 298.245 C 31.155 296.640,31.560 294.771,35.656 288.349 C 39.936 281.638,39.115 283.041,63.022 241.600 C 67.909 233.130,73.834 222.870,76.190 218.800 C 85.217 203.206,85.571 206.467,72.374 183.600 C 29.987 110.150,30.392 110.843,30.405 111.811 M168.576 153.948 C 166.211 155.066,156.601 160.463,152.600 162.918 C 149.833 164.616,147.389 166.611,146.438 167.947 L 145.636 169.073 147.469 168.145 C 148.477 167.635,149.954 167.114,150.751 166.988 C 157.418 165.934,165.802 161.829,168.364 158.362 C 169.669 156.598,171.688 152.800,171.321 152.800 C 171.144 152.800,169.909 153.317,168.576 153.948 M252.800 176.387 C 252.800 176.923,252.992 177.101,253.400 176.945 C 253.816 176.785,254.000 176.972,254.000 177.557 C 254.000 178.021,254.180 178.400,254.400 178.400 C 254.651 178.400,254.800 180.933,254.800 185.200 C 254.800 189.605,254.655 192.000,254.387 192.000 C 254.161 192.000,253.856 192.315,253.710 192.700 C 253.370 193.598,252.577 194.400,252.029 194.400 C 251.793 194.400,251.600 194.549,251.600 194.731 C 251.600 195.643,246.993 195.999,235.469 195.977 C 217.656 195.944,216.578 194.971,227.475 188.764 C 229.634 187.534,235.136 184.340,239.703 181.665 C 244.270 178.990,248.140 176.830,248.303 176.865 C 248.466 176.899,248.870 176.833,249.200 176.718 C 252.951 175.412,252.800 175.426,252.800 176.387 M222.200 217.462 C 224.180 218.482,226.520 219.773,227.400 220.331 C 229.581 221.715,233.044 223.698,239.838 227.452 C 245.624 230.650,245.123 232.416,237.133 236.994 C 229.089 241.602,228.541 241.390,222.734 231.400 C 218.515 224.143,214.800 216.812,214.800 215.743 C 214.800 214.619,218.225 215.415,222.200 217.462 " stroke="none" fill="#abdbf7" fill-rule="evenodd"></path><path id="path3" d="M197.489 10.402 C 196.199 11.416,194.762 13.709,187.207 26.800 C 183.843 32.630,177.451 43.700,173.002 51.400 C 144.275 101.124,146.695 96.780,146.876 98.299 C 146.989 99.242,185.554 122.188,193.559 126.075 C 197.726 128.098,200.627 127.214,201.592 123.629 C 201.914 122.432,202.006 106.479,201.920 66.561 L 201.800 11.154 200.800 10.386 C 199.520 9.402,198.754 9.406,197.489 10.402 M257.937 103.076 C 257.373 103.755,257.437 159.703,258.004 162.217 C 258.449 164.190,262.472 170.035,264.563 171.748 C 266.376 173.233,299.806 192.687,305.230 195.413 C 312.585 199.111,314.337 198.308,320.093 188.600 C 323.307 183.178,345.420 144.874,357.469 123.855 C 367.955 105.564,368.367 104.317,364.387 102.910 C 362.171 102.126,258.591 102.288,257.937 103.076 " stroke="none" fill="#f4cc48" fill-rule="evenodd"></path><path id="path4" d="M133.760 176.362 C 132.858 176.772,126.775 180.204,120.241 183.989 C 107.486 191.380,101.194 194.546,91.926 198.236 L 86.051 200.576 84.842 204.388 C 84.095 206.746,82.583 210.031,80.881 213.000 C 79.367 215.640,72.043 228.330,64.605 241.200 C 57.168 254.070,49.014 268.200,46.486 272.600 C 43.958 277.000,40.271 283.083,38.292 286.117 C 33.375 293.657,32.861 295.524,35.222 297.269 C 37.203 298.734,39.574 298.800,90.050 298.800 C 146.140 298.800,140.814 299.121,146.200 295.420 C 147.740 294.361,151.250 292.373,154.000 291.000 C 156.750 289.628,161.790 286.894,165.200 284.924 C 168.610 282.955,175.090 279.229,179.600 276.643 C 191.452 269.850,192.507 268.981,191.646 266.722 C 191.354 265.957,188.099 263.200,187.486 263.200 C 187.386 263.200,185.260 262.012,182.763 260.561 C 167.887 251.915,165.351 252.314,158.348 264.406 C 151.683 275.915,151.254 276.610,150.221 277.581 L 149.250 278.493 148.625 276.998 C 148.099 275.740,148.000 273.301,148.000 261.631 C 148.000 254.002,147.850 247.589,147.667 247.380 C 147.485 247.171,147.112 246.218,146.840 245.262 C 146.568 244.307,145.674 242.417,144.853 241.062 C 142.044 236.428,141.793 235.684,141.874 232.200 C 141.915 230.440,142.067 223.760,142.210 217.355 L 142.472 205.711 141.230 200.555 C 140.547 197.720,139.789 194.770,139.545 194.000 C 139.302 193.230,138.989 189.030,138.851 184.667 C 138.546 175.021,138.147 174.370,133.760 176.362 M224.798 258.802 C 224.490 258.992,224.095 259.058,223.919 258.950 C 223.744 258.842,223.600 258.954,223.600 259.200 C 223.600 259.446,223.420 259.536,223.200 259.400 C 222.980 259.264,222.800 259.354,222.800 259.600 C 222.800 259.846,222.620 259.936,222.400 259.800 C 222.180 259.664,222.000 259.754,222.000 260.000 C 222.000 260.246,221.819 260.335,221.597 260.198 C 221.376 260.061,221.087 260.230,220.955 260.572 C 220.824 260.915,220.555 261.096,220.358 260.974 C 220.161 260.852,220.000 260.954,220.000 261.200 C 220.000 261.446,219.827 261.540,219.615 261.409 C 219.403 261.278,218.878 261.522,218.448 261.952 C 218.018 262.382,217.562 262.628,217.433 262.500 C 217.305 262.372,217.200 262.487,217.200 262.757 C 217.200 263.027,217.019 263.135,216.797 262.998 C 216.576 262.861,216.287 263.030,216.155 263.372 C 216.024 263.715,215.755 263.896,215.558 263.774 C 215.361 263.652,215.200 263.754,215.200 264.000 C 215.200 264.246,214.975 264.318,214.700 264.159 C 214.425 264.001,214.329 264.014,214.486 264.188 C 214.643 264.363,214.592 264.842,214.372 265.253 C 214.105 265.752,214.105 266.000,214.373 266.000 C 214.594 266.000,214.659 266.301,214.518 266.669 C 214.332 267.154,214.427 267.275,214.859 267.109 C 215.200 266.979,215.656 267.197,215.917 267.616 C 216.170 268.022,217.148 268.787,218.089 269.318 C 219.030 269.849,223.170 272.207,227.289 274.557 C 237.066 280.138,238.800 280.824,238.800 279.111 C 238.800 278.395,236.107 272.913,235.601 272.601 C 235.374 272.460,234.920 271.773,234.593 271.073 C 234.265 270.373,233.466 268.990,232.816 268.000 C 232.166 267.010,231.181 265.261,230.628 264.113 C 229.019 260.773,226.023 258.044,224.798 258.802 " stroke="none" fill="#5f57a4" fill-rule="evenodd"></path><path id="path5" d="M0.000 200.000 L 0.000 400.000 97.680 400.000 C 151.404 400.000,195.189 399.851,194.980 399.668 C 194.632 399.365,191.158 396.618,190.204 395.893 C 189.982 395.724,189.350 395.211,188.800 394.754 C 188.250 394.298,187.314 393.671,186.721 393.362 C 186.127 393.053,184.867 392.306,183.921 391.700 C 181.010 389.839,173.718 385.543,162.200 378.903 C 158.020 376.493,150.370 372.083,145.200 369.103 C 140.030 366.122,124.190 356.977,110.000 348.780 C 95.810 340.582,76.640 329.524,67.400 324.205 C 58.160 318.886,49.790 314.061,48.800 313.483 C 43.167 310.193,39.678 308.391,35.274 306.497 C 25.379 302.240,24.011 300.079,25.502 291.063 C 26.114 287.359,26.182 279.254,26.273 199.400 C 26.327 151.220,26.404 110.450,26.444 108.800 C 26.646 100.403,28.911 97.992,45.600 88.403 C 58.941 80.738,83.688 66.469,105.600 53.806 C 118.470 46.369,135.930 36.287,144.400 31.401 C 152.870 26.516,163.940 20.130,169.000 17.210 C 174.060 14.291,179.910 10.855,182.000 9.575 C 184.090 8.296,186.160 7.117,186.600 6.955 C 187.040 6.794,189.417 5.523,191.882 4.131 C 194.348 2.739,196.458 1.600,196.573 1.600 C 196.687 1.600,197.370 1.241,198.090 0.801 L 199.400 0.003 99.700 0.001 L 0.000 0.000 0.000 200.000 M202.741 1.005 C 203.698 1.552,204.723 2.000,205.019 2.000 C 206.529 2.000,211.943 4.868,228.000 14.173 C 244.260 23.597,265.995 36.151,340.200 78.984 C 361.427 91.236,365.233 93.633,367.000 95.857 C 367.660 96.688,368.628 97.736,369.152 98.184 C 371.504 100.201,371.967 100.809,372.396 102.451 C 372.647 103.413,373.113 105.010,373.430 106.000 C 373.748 106.990,374.137 108.250,374.294 108.800 C 374.451 109.350,374.694 150.390,374.833 200.000 C 375.011 263.376,375.219 290.973,375.532 292.800 C 376.823 300.331,374.869 302.985,364.800 307.386 C 361.623 308.774,341.700 320.157,277.600 357.210 C 273.530 359.563,263.180 365.539,254.600 370.492 C 219.025 391.025,214.064 393.941,211.200 395.997 C 209.550 397.181,207.590 398.567,206.844 399.075 L 205.488 400.000 302.744 400.000 L 400.000 400.000 400.000 200.000 L 400.000 0.000 300.500 0.005 L 201.000 0.010 202.741 1.005 M196.800 138.279 C 194.595 139.071,181.638 146.374,176.900 149.495 C 173.239 151.906,173.558 152.882,183.786 170.610 C 193.404 187.279,194.202 188.400,196.448 188.400 C 199.138 188.400,199.579 184.711,199.577 162.200 C 199.575 146.094,199.315 141.168,198.354 139.059 C 197.852 137.957,197.786 137.924,196.800 138.279 M147.221 173.270 C 145.995 174.585,145.800 176.252,145.800 185.400 C 145.800 195.013,146.291 196.917,149.200 198.593 C 151.040 199.654,184.145 199.813,186.961 198.775 C 191.640 197.051,189.721 194.860,177.116 187.534 C 148.391 170.839,149.149 171.200,147.221 173.270 M187.200 208.749 C 184.886 209.663,180.799 211.878,171.600 217.205 C 167.530 219.561,161.649 222.960,158.531 224.757 C 147.296 231.232,147.441 233.133,159.709 240.123 C 172.260 247.274,171.921 247.431,182.075 229.804 C 193.383 210.175,194.425 205.894,187.200 208.749 " stroke="none" fill="#fbfbfb" fill-rule="evenodd"></path><path id="path6" d="M201.362 0.728 C 201.781 1.207,202.366 1.600,202.662 1.600 C 202.958 1.600,203.200 1.780,203.200 2.000 C 203.200 2.220,203.464 2.400,203.787 2.400 C 204.110 2.400,205.114 3.401,206.018 4.625 C 207.408 6.506,211.283 9.600,212.249 9.600 C 212.408 9.600,212.821 9.847,213.169 10.149 C 213.516 10.451,214.880 11.291,216.200 12.016 C 218.993 13.549,219.360 13.761,248.000 30.318 C 259.990 37.250,274.390 45.567,280.000 48.802 C 363.353 96.853,357.338 93.202,358.502 96.446 C 358.688 96.965,359.547 97.132,362.867 97.297 C 365.140 97.409,367.315 97.633,367.700 97.793 C 368.933 98.308,368.459 97.341,366.497 95.337 C 364.045 92.833,361.391 91.191,337.800 77.586 C 294.337 52.521,245.854 24.520,228.000 14.173 C 211.972 4.885,206.528 2.000,205.028 2.000 C 204.738 2.000,203.623 1.517,202.550 0.928 C 200.767 -0.053,200.665 -0.070,201.362 0.728 M197.600 0.992 C 193.612 3.270,187.261 6.713,186.600 6.955 C 186.160 7.117,184.090 8.296,182.000 9.575 C 179.910 10.855,174.060 14.291,169.000 17.210 C 163.940 20.130,152.870 26.516,144.400 31.401 C 135.930 36.287,118.470 46.369,105.600 53.806 C 83.083 66.818,57.757 81.421,45.600 88.401 C 38.310 92.587,32.578 96.349,30.528 98.295 C 29.656 99.123,29.226 99.588,29.572 99.328 C 30.863 98.359,32.719 97.921,37.000 97.571 C 39.420 97.374,42.570 96.932,44.000 96.590 C 50.925 94.933,54.042 94.830,98.309 94.791 C 129.375 94.763,140.744 94.633,140.543 94.309 C 140.366 94.021,140.502 93.954,140.929 94.117 C 142.143 94.583,143.471 92.715,150.113 81.200 C 153.730 74.930,163.497 58.010,171.817 43.600 C 180.138 29.190,188.108 15.330,189.527 12.800 C 192.803 6.963,194.933 3.823,196.234 2.915 C 199.153 0.877,200.076 -0.421,197.600 0.992 M26.948 104.216 C 26.356 106.491,26.382 102.911,26.273 199.400 C 26.182 279.254,26.114 287.359,25.502 291.063 C 24.011 300.079,25.379 302.240,35.274 306.497 C 39.678 308.391,43.167 310.193,48.800 313.483 C 49.790 314.061,58.160 318.886,67.400 324.205 C 76.640 329.524,95.810 340.582,110.000 348.780 C 124.190 356.977,140.030 366.122,145.200 369.103 C 150.370 372.083,158.020 376.493,162.200 378.903 C 173.718 385.543,181.010 389.839,183.921 391.700 C 184.867 392.306,186.127 393.053,186.721 393.362 C 187.314 393.671,188.250 394.298,188.800 394.754 C 189.947 395.708,189.822 395.608,193.025 398.108 C 195.130 399.750,195.697 400.000,197.325 400.000 C 199.632 400.000,199.643 399.749,197.408 398.105 C 196.439 397.393,194.377 395.143,192.825 393.105 C 191.273 391.067,188.222 387.356,186.045 384.858 C 183.468 381.901,181.045 378.551,179.102 375.258 C 174.866 368.081,156.425 336.170,145.897 317.800 C 140.827 308.952,140.205 308.196,137.526 307.622 C 136.224 307.342,122.230 307.200,96.080 307.199 C 52.711 307.198,53.316 307.226,40.930 304.611 C 26.697 301.606,25.510 299.565,30.103 285.987 C 34.399 273.283,33.486 275.145,46.190 253.200 C 66.301 218.461,74.266 204.503,75.128 202.490 C 76.638 198.962,76.086 196.763,71.993 190.000 C 70.833 188.083,66.490 180.505,66.262 180.000 C 66.113 179.670,65.633 178.860,65.195 178.200 C 64.757 177.540,64.116 176.460,63.772 175.800 C 63.427 175.140,62.715 173.880,62.189 173.000 C 61.663 172.120,60.956 170.860,60.617 170.200 C 60.279 169.540,59.647 168.460,59.214 167.800 C 58.780 167.140,58.143 166.060,57.799 165.400 C 57.454 164.740,56.773 163.543,56.286 162.739 C 54.619 159.991,53.339 157.786,46.458 145.800 C 42.669 139.200,39.395 133.530,39.182 133.200 C 38.969 132.870,38.574 132.150,38.305 131.600 C 38.036 131.050,37.689 130.506,37.533 130.392 C 37.377 130.277,37.059 129.737,36.826 129.192 C 36.593 128.646,36.236 127.930,36.034 127.600 C 35.141 126.143,32.516 119.064,31.043 114.142 C 30.515 112.380,29.614 110.012,29.040 108.879 C 28.466 107.746,27.855 105.870,27.683 104.710 L 27.369 102.600 26.948 104.216 M372.217 107.200 C 371.822 108.410,370.973 110.371,370.331 111.558 C 369.164 113.714,369.164 113.716,369.882 115.158 C 370.564 116.527,370.612 120.855,370.830 200.600 C 371.059 284.412,371.062 284.610,371.921 289.200 C 373.830 299.400,372.773 301.276,363.097 304.863 C 356.284 307.389,353.344 308.903,337.600 317.996 C 326.002 324.695,303.820 337.503,269.000 357.605 C 213.617 389.579,214.316 389.157,210.475 392.886 C 208.106 395.187,203.785 398.393,203.034 398.409 C 202.795 398.414,202.150 398.770,201.600 399.200 L 200.600 399.982 203.044 399.991 C 205.692 400.001,205.473 400.108,211.200 395.997 C 214.064 393.941,219.025 391.025,254.600 370.492 C 263.180 365.539,273.530 359.563,277.600 357.210 C 341.700 320.157,361.623 308.774,364.800 307.386 C 374.869 302.985,376.823 300.331,375.532 292.800 C 375.219 290.973,375.010 263.366,374.831 200.000 C 374.690 150.390,374.439 109.287,374.273 108.660 C 374.106 108.034,373.737 106.954,373.453 106.260 L 372.936 105.000 372.217 107.200 M198.671 137.881 C 198.174 138.010,198.028 138.282,198.212 138.735 C 198.361 139.101,198.675 139.940,198.910 140.600 C 199.487 142.225,199.784 176.095,199.269 181.647 C 198.673 188.082,197.052 190.009,194.346 187.500 C 190.838 184.247,174.832 155.572,174.809 152.500 C 174.798 150.992,174.834 151.006,173.094 151.836 C 172.225 152.250,171.426 153.121,170.800 154.336 C 169.229 157.385,167.626 159.446,165.815 160.746 C 162.734 162.959,156.637 165.843,153.969 166.349 C 144.293 168.187,144.289 168.195,144.477 185.873 L 144.600 197.400 147.100 202.691 L 149.600 207.983 149.595 213.891 C 149.590 219.314,149.490 220.129,148.378 223.800 C 145.356 233.779,145.993 234.952,158.221 241.908 C 168.031 247.490,168.521 247.660,175.600 247.958 L 181.400 248.201 186.200 251.001 C 196.366 256.930,196.000 257.393,196.000 238.608 C 196.000 220.522,196.419 217.664,200.727 206.400 C 201.773 203.665,202.771 199.897,203.587 195.600 C 205.146 187.383,206.436 182.212,207.228 181.000 C 207.372 180.780,207.611 180.092,207.760 179.471 C 207.908 178.850,209.172 176.330,210.568 173.871 C 211.963 171.412,213.577 168.545,214.153 167.500 C 216.391 163.439,217.119 162.150,217.934 160.800 C 219.641 157.973,220.450 156.317,220.231 156.098 C 220.108 155.975,220.202 155.638,220.441 155.351 C 222.110 153.340,220.199 151.033,213.807 147.345 C 209.451 144.830,207.530 143.200,205.043 139.907 C 203.610 138.009,201.174 137.234,198.671 137.881 M151.481 172.891 C 152.580 173.374,162.650 179.126,177.116 187.534 C 189.721 194.860,191.640 197.051,186.961 198.775 C 184.145 199.813,151.040 199.654,149.200 198.593 C 146.291 196.917,145.800 195.013,145.800 185.400 C 145.800 172.951,146.767 170.821,151.481 172.891 M251.000 176.097 C 250.340 176.324,249.530 176.603,249.200 176.718 C 248.870 176.833,248.466 176.899,248.303 176.865 C 248.140 176.830,244.270 178.990,239.703 181.665 C 235.136 184.340,229.634 187.534,227.475 188.764 C 216.578 194.971,217.656 195.944,235.469 195.977 C 246.993 195.999,251.600 195.643,251.600 194.731 C 251.600 194.549,251.793 194.400,252.029 194.400 C 252.577 194.400,253.370 193.598,253.710 192.700 C 253.856 192.315,254.161 192.000,254.387 192.000 C 254.655 192.000,254.800 189.605,254.800 185.200 C 254.800 180.933,254.651 178.400,254.400 178.400 C 254.180 178.400,254.000 178.021,254.000 177.557 C 254.000 176.972,253.816 176.785,253.400 176.945 C 252.992 177.101,252.800 176.923,252.800 176.387 C 252.800 175.517,252.724 175.505,251.000 176.097 M191.120 208.480 C 192.779 210.139,191.038 214.246,182.075 229.804 C 171.921 247.431,172.260 247.274,159.709 240.123 C 147.441 233.133,147.296 231.232,158.531 224.757 C 161.649 222.960,167.530 219.561,171.600 217.205 C 186.697 208.463,189.742 207.102,191.120 208.480 M214.800 215.743 C 214.800 216.812,218.515 224.143,222.734 231.400 C 228.541 241.390,229.089 241.602,237.133 236.994 C 245.123 232.416,245.624 230.650,239.838 227.452 C 233.044 223.698,229.581 221.715,227.400 220.331 C 221.491 216.582,214.800 214.145,214.800 215.743 " stroke="none" fill="#c3edf8" fill-rule="evenodd"></path><path id="path7" d="M199.867 1.067 C 199.720 1.213,199.600 1.952,199.600 2.709 C 199.600 3.593,199.242 4.509,198.600 5.273 C 198.050 5.927,197.594 6.853,197.586 7.331 C 197.578 7.809,197.314 8.650,197.000 9.200 C 196.065 10.835,196.262 11.367,197.454 10.429 C 198.850 9.331,199.333 9.378,201.417 10.811 C 204.135 12.681,203.423 11.517,229.990 57.570 C 240.832 76.364,250.642 93.284,251.790 95.170 C 252.939 97.057,254.536 99.669,255.339 100.976 C 256.143 102.284,256.800 103.613,256.800 103.930 C 256.800 105.628,258.503 102.093,258.839 99.698 C 259.047 98.214,259.306 96.715,259.414 96.368 C 259.523 96.020,259.253 95.322,258.815 94.817 C 257.479 93.277,256.398 91.439,233.986 52.600 C 207.061 5.940,207.830 7.250,206.501 5.794 C 204.819 3.953,202.772 2.370,202.384 2.610 C 202.192 2.729,201.737 2.370,201.372 1.813 C 200.692 0.775,200.335 0.598,199.867 1.067 M141.200 96.905 C 139.718 97.124,115.804 97.398,85.600 97.544 C 25.979 97.832,30.647 97.566,28.467 100.800 C 26.546 103.648,27.394 106.426,32.985 115.600 C 35.025 118.946,44.395 135.124,73.182 185.000 C 85.439 206.237,85.176 203.277,76.190 218.800 C 73.834 222.870,67.909 233.130,63.022 241.600 C 39.115 283.041,39.936 281.638,35.656 288.349 C 30.856 295.874,30.943 298.240,36.057 299.228 C 38.225 299.647,135.749 299.620,137.400 299.200 C 138.060 299.032,116.530 298.873,89.555 298.847 C 39.637 298.799,37.195 298.728,35.222 297.269 C 32.861 295.524,33.375 293.657,38.292 286.117 C 40.271 283.083,43.958 277.000,46.486 272.600 C 49.014 268.200,57.168 254.070,64.605 241.200 C 72.043 228.330,79.367 215.640,80.881 213.000 C 82.634 209.942,84.092 206.754,84.897 204.216 L 86.160 200.233 84.138 196.416 C 83.025 194.317,73.065 176.940,62.003 157.800 C 31.056 104.252,32.691 107.282,33.342 104.688 C 33.888 102.512,31.453 102.616,87.400 102.389 C 138.589 102.182,139.437 102.165,141.800 101.354 C 145.920 99.939,146.689 99.402,146.874 97.813 L 147.039 96.400 145.420 96.461 C 144.529 96.495,142.630 96.694,141.200 96.905 M196.200 133.126 C 195.100 133.738,193.300 134.876,192.200 135.657 C 190.229 137.055,183.821 140.785,158.600 155.211 C 139.405 166.191,140.335 164.791,140.096 183.053 L 139.932 195.506 141.202 200.608 L 142.472 205.711 142.210 217.355 C 142.067 223.760,141.915 230.440,141.874 232.200 C 141.793 235.684,142.044 236.428,144.853 241.062 C 145.674 242.417,146.568 244.307,146.840 245.262 C 147.112 246.218,147.485 247.171,147.667 247.380 C 147.850 247.589,148.000 254.002,148.000 261.631 C 148.000 273.301,148.099 275.740,148.625 276.998 L 149.250 278.493 150.221 277.581 C 151.254 276.610,151.683 275.915,158.348 264.406 C 165.351 252.314,167.887 251.915,182.763 260.561 C 185.260 262.012,187.398 263.200,187.514 263.200 C 187.630 263.200,188.281 263.618,188.962 264.128 C 191.011 265.665,191.338 265.805,190.877 264.948 C 190.149 263.598,188.674 262.541,183.000 259.301 C 173.184 253.697,170.319 252.433,166.000 251.806 C 165.010 251.662,163.570 251.341,162.800 251.093 C 161.430 250.652,161.141 250.585,160.076 250.461 C 159.784 250.427,159.681 250.193,159.842 249.932 C 160.036 249.617,159.913 249.548,159.466 249.719 C 159.100 249.860,158.800 249.801,158.800 249.587 C 158.800 249.374,158.665 249.229,158.500 249.264 C 157.916 249.387,156.808 248.711,157.023 248.363 C 157.143 248.168,156.962 248.116,156.621 248.247 C 156.279 248.378,156.000 248.286,156.000 248.043 C 156.000 247.799,155.775 247.645,155.500 247.700 C 155.225 247.755,155.043 247.581,155.095 247.314 C 155.154 247.015,154.937 246.926,154.530 247.082 C 154.070 247.259,153.962 247.185,154.175 246.841 C 154.365 246.533,154.276 246.380,153.940 246.436 C 153.144 246.569,151.970 245.972,152.223 245.563 C 152.343 245.368,152.207 245.291,151.921 245.391 C 151.634 245.491,150.770 244.750,150.000 243.745 C 149.230 242.740,148.415 241.711,148.189 241.459 C 146.852 239.968,143.873 234.686,143.345 232.871 C 142.533 230.078,142.745 202.703,143.596 200.400 C 143.958 199.422,144.199 194.905,144.397 185.400 C 144.707 170.570,144.811 169.866,147.071 167.226 C 149.223 164.711,161.973 157.005,170.581 153.016 C 172.771 152.001,175.111 150.754,175.781 150.244 C 180.353 146.766,195.577 138.539,198.543 137.943 C 202.118 137.225,213.080 142.494,224.890 150.608 C 226.931 152.010,229.779 153.957,231.221 154.935 C 234.688 157.287,246.108 163.869,250.467 166.028 L 253.934 167.745 255.392 166.633 C 257.323 165.161,258.186 163.317,257.831 161.427 L 257.557 159.965 256.297 161.025 C 253.926 163.020,251.734 162.239,239.400 155.004 C 236.100 153.068,231.690 150.182,229.600 148.589 C 226.047 145.882,223.332 144.192,209.600 136.140 C 201.401 131.332,199.997 131.016,196.200 133.126 " stroke="none" fill="#d79db9" fill-rule="evenodd"></path><path id="path8" d="M198.353 1.147 C 197.777 1.726,196.834 2.522,196.258 2.915 C 194.940 3.814,192.835 6.905,189.527 12.800 C 187.424 16.547,165.620 54.352,147.110 86.345 C 145.028 89.945,142.566 93.770,141.640 94.845 L 139.956 96.800 141.478 96.760 C 142.315 96.739,143.937 96.604,145.083 96.460 L 147.166 96.200 151.309 89.000 C 155.430 81.838,164.435 66.228,183.384 33.400 C 188.845 23.940,193.922 15.244,194.666 14.076 C 196.022 11.951,196.958 9.771,197.594 7.261 C 197.781 6.525,198.308 5.523,198.767 5.036 C 199.295 4.473,199.600 3.617,199.600 2.698 C 199.600 0.873,200.297 0.403,201.209 1.612 C 201.594 2.122,202.219 2.585,202.598 2.641 C 203.257 2.738,205.250 4.272,205.532 4.900 C 205.606 5.065,205.844 5.200,206.061 5.200 C 206.698 5.200,204.737 2.709,203.934 2.499 C 203.530 2.393,203.200 2.148,203.200 1.953 C 203.200 1.759,202.958 1.600,202.662 1.600 C 202.366 1.600,201.798 1.240,201.400 0.800 C 200.458 -0.241,199.641 -0.148,198.353 1.147 M259.432 96.303 C 259.110 97.328,258.469 102.175,258.632 102.353 C 258.710 102.437,282.224 102.487,310.886 102.463 C 366.703 102.416,365.193 102.363,366.345 104.423 C 367.561 106.596,368.467 104.904,335.629 161.800 C 315.456 196.753,316.184 195.610,313.280 196.894 C 309.996 198.347,309.267 198.010,284.000 183.389 C 263.830 171.717,263.748 171.659,260.449 166.776 L 258.026 163.190 257.413 164.374 C 257.076 165.026,256.178 166.033,255.418 166.614 L 254.034 167.669 255.002 169.134 C 257.251 172.543,257.325 173.103,257.504 188.200 L 257.670 202.200 259.417 200.569 C 260.377 199.672,261.867 198.727,262.728 198.469 C 264.745 197.865,295.204 197.825,300.010 198.420 C 305.552 199.106,314.037 201.113,316.467 202.312 L 318.734 203.431 318.988 201.739 C 319.157 200.613,320.951 197.064,324.353 191.124 C 334.978 172.572,365.747 119.385,366.982 117.435 C 373.464 107.199,374.348 101.611,369.918 98.873 C 367.231 97.212,366.415 97.187,313.400 97.092 C 265.583 97.006,262.116 96.954,260.926 96.303 C 259.715 95.641,259.641 95.641,259.432 96.303 " stroke="none" fill="#ccd2a4" fill-rule="evenodd"></path></g></svg>